<svg id="Layer_1" data-name="Layer 1" xmlns="http://www.w3.org/2000/svg" viewBox="150 150 478.01354 478.01354"><defs><style>.cls-1{fill:#ea4335;}.cls-2{fill:#4285f4;}.cls-3{fill:#fbbc04;}.cls-4{fill:#0f9d58;}</style></defs><path class="cls-1" d="M285.27455,389.3825l64.31236-37.13123a31.64411,31.64411,0,0,0-31.644-54.80925L206.814,361.60311Z"/><path class="cls-2" d="M333.735,484.81672a31.64831,31.64831,0,0,0,15.852-59.05446L238.45806,361.60311a31.64411,31.64411,0,0,0-31.644,54.80924L317.94287,480.5715A31.49311,31.49311,0,0,0,333.735,484.81672Z"/><path class="cls-3" d="M444.27955,484.81672a31.49315,31.49315,0,0,0,15.79209-4.24522l111.12788-64.15915-77.46318-28.35579-65.30875,37.7057a31.64831,31.64831,0,0,0,15.852,59.05446Z"/><path class="cls-4" d="M555.34756,420.65757a31.64831,31.64831,0,0,0,15.852-59.05446L460.07164,297.442a31.64411,31.64411,0,0,0-31.644,54.80925l111.12789,64.16108A31.51286,31.51286,0,0,0,555.34756,420.65757Z"/></svg>